<svg xmlns="http://www.w3.org/2000/svg" xmlns:xlink="http://www.w3.org/1999/xlink" width="358" zoomAndPan="magnify" viewBox="0 0 268.5 112.499997" height="150" preserveAspectRatio="xMidYMid meet" version="1.0"><defs><g/><clipPath id="5a6a33bc74"><path d="M 0.34375 0 L 267.65625 0 L 267.65625 112.003906 L 0.34375 112.003906 Z M 0.34375 0 " clip-rule="nonzero"/></clipPath></defs><g clip-path="url(#5a6a33bc74)"><path fill="#ffffff" d="M 0.34375 0 L 268.15625 0 L 268.15625 118.945312 L 0.34375 118.945312 Z M 0.34375 0 " fill-opacity="1" fill-rule="nonzero"/><path fill="#ffffff" d="M 0.34375 0 L 268.15625 0 L 268.15625 112.210938 L 0.34375 112.210938 Z M 0.34375 0 " fill-opacity="1" fill-rule="nonzero"/><path fill="#ffffff" d="M 0.34375 0 L 268.15625 0 L 268.15625 112.210938 L 0.34375 112.210938 Z M 0.34375 0 " fill-opacity="1" fill-rule="nonzero"/></g><g fill="#009688" fill-opacity="1"><g transform="translate(3.259107, 98.280517)"><g><path d="M 37.671875 1.234375 C 28.265625 1.234375 21.472656 -1.441406 17.296875 -6.796875 C 13.128906 -12.160156 11.046875 -19.875 11.046875 -29.9375 L 11.046875 -87.59375 L 22.203125 -87.59375 L 22.203125 -30.546875 C 22.203125 -23.597656 23.390625 -18.203125 25.765625 -14.359375 C 28.140625 -10.515625 32.109375 -8.59375 37.671875 -8.59375 C 43.796875 -8.59375 47.984375 -10.59375 50.234375 -14.59375 C 52.484375 -18.601562 53.609375 -23.960938 53.609375 -30.671875 L 53.609375 -87.59375 L 64.78125 -87.59375 L 64.78125 -29.6875 C 64.78125 -20.363281 62.570312 -12.878906 58.15625 -7.234375 C 53.738281 -1.585938 46.910156 1.234375 37.671875 1.234375 Z M 87.109375 -30.796875 C 84.648438 -30.796875 82.4375 -31.710938 80.46875 -33.546875 C 78.507812 -35.390625 77.125 -37.828125 76.3125 -40.859375 L 59.140625 -40.859375 L 59.140625 -49.8125 L 85.390625 -49.8125 L 89.5625 -30.796875 Z M 87.109375 -30.796875 "/></g></g></g><g fill="#009688" fill-opacity="1"><g transform="translate(48.961149, 98.268325)"><g><path d="M 5.28125 0 C 6.34375 -11.707031 7.671875 -21.59375 9.265625 -29.65625 C 10.867188 -37.71875 12.835938 -44.367188 15.171875 -49.609375 C 17.503906 -54.847656 20.390625 -58.960938 23.828125 -61.953125 C 27.265625 -64.941406 31.394531 -67.171875 36.21875 -68.640625 L 30.328125 -87.671875 L 42.234375 -87.671875 L 69.375 0 L 57.71875 0 L 39.171875 -59.671875 C 36.054688 -58.941406 33.269531 -57.488281 30.8125 -55.3125 C 28.363281 -53.144531 26.195312 -49.847656 24.3125 -45.421875 C 22.425781 -41.003906 20.804688 -35.113281 19.453125 -27.75 C 18.109375 -20.382812 16.988281 -11.132812 16.09375 0 Z M 77.609375 -25.0625 C 75.148438 -25.0625 72.9375 -25.976562 70.96875 -27.8125 C 69.007812 -29.65625 67.617188 -32.09375 66.796875 -35.125 L 49.609375 -35.125 L 49.609375 -44.09375 L 75.890625 -44.09375 L 80.0625 -25.0625 Z M 77.609375 -25.0625 "/></g></g></g><g fill="#009688" fill-opacity="1"><g transform="translate(135.620596, 98.396379)"><g><path d="M 12.828125 0 L 12.828125 -27.0625 C 9.679688 -27.53125 7.285156 -28.6875 5.640625 -30.53125 C 4.003906 -32.382812 3.1875 -35.054688 3.1875 -38.546875 L 3.1875 -45.578125 L 12.25 -45.578125 L 12.25 -40.28125 C 12.25 -37.769531 12.789062 -36.046875 13.875 -35.109375 C 14.96875 -34.171875 16.75 -33.703125 19.21875 -33.703125 L 22.28125 -33.703125 L 22.28125 0 Z M 12.828125 0 "/></g></g></g><g fill="#009688" fill-opacity="1"><g transform="translate(165.894122, 98.396379)"><g><path d="M 24.578125 0 L 24.578125 -21 C 24.578125 -24.695312 24.3125 -27.726562 23.78125 -30.09375 C 23.25 -32.457031 22.394531 -34.285156 21.21875 -35.578125 C 20.050781 -36.878906 18.507812 -37.785156 16.59375 -38.296875 C 14.675781 -38.804688 12.335938 -39.0625 9.578125 -39.0625 L 8.9375 -39.0625 C 8.125 -37.320312 7.195312 -36.109375 6.15625 -35.421875 C 5.113281 -34.742188 3.804688 -34.40625 2.234375 -34.40625 L 0.640625 -34.40625 L 3.125 -45.578125 L 10.59375 -45.578125 C 16.164062 -45.578125 20.675781 -44.8125 24.125 -43.28125 C 27.570312 -41.75 30.082031 -39.34375 31.65625 -36.0625 C 33.226562 -32.78125 34.015625 -28.523438 34.015625 -23.296875 L 34.015625 0 Z M 24.578125 0 "/></g></g></g><g fill="#009688" fill-opacity="1"><g transform="translate(207.587438, 98.396379)"><g><path d="M 32.234375 4.28125 C 30.578125 4.28125 29.257812 3.851562 28.28125 3 C 27.300781 2.144531 26.554688 1.144531 26.046875 0 L 20.9375 0 C 16.550781 0 13.082031 -0.507812 10.53125 -1.53125 C 7.976562 -2.550781 6.148438 -4.226562 5.046875 -6.5625 C 3.941406 -8.90625 3.390625 -12.101562 3.390625 -16.15625 L 3.390625 -19.59375 C 3.390625 -24.570312 3.921875 -28.738281 4.984375 -32.09375 C 6.046875 -35.457031 7.53125 -38.117188 9.4375 -40.078125 C 11.351562 -42.035156 13.609375 -43.441406 16.203125 -44.296875 C 18.804688 -45.148438 21.640625 -45.578125 24.703125 -45.578125 L 32.171875 -45.578125 L 34.65625 -34.40625 L 32.875 -34.40625 C 31.425781 -34.40625 30.171875 -34.753906 29.109375 -35.453125 C 28.046875 -36.160156 27.128906 -37.363281 26.359375 -39.0625 L 24.765625 -39.0625 C 22.046875 -39.0625 19.800781 -38.460938 18.03125 -37.265625 C 16.257812 -36.078125 14.945312 -34.109375 14.09375 -31.359375 C 13.25 -28.617188 12.828125 -24.929688 12.828125 -20.296875 L 12.828125 -16.15625 C 12.828125 -13.632812 13.070312 -11.679688 13.5625 -10.296875 C 14.050781 -8.921875 14.890625 -7.945312 16.078125 -7.375 C 17.273438 -6.800781 18.9375 -6.515625 21.0625 -6.515625 L 26.046875 -6.515625 C 26.472656 -7.578125 27.195312 -8.550781 28.21875 -9.4375 C 29.238281 -10.332031 30.578125 -10.78125 32.234375 -10.78125 L 34.34375 -10.78125 L 32.609375 -3.25 L 34.34375 4.28125 Z M 32.234375 4.28125 "/></g></g></g><g fill="#009688" fill-opacity="1"><g transform="translate(108.254757, 48.590858)"><g><path d="M 9.484375 0 L 9.484375 -4.609375 L 5.203125 -4.609375 L 5.203125 0 L 1.3125 0 L 1.3125 -12.140625 L 5.203125 -12.140625 L 5.203125 -7.703125 L 9.484375 -7.703125 L 9.484375 -12.140625 L 13.390625 -12.140625 L 13.390625 0 Z M 9.484375 0 "/></g></g></g><g fill="#009688" fill-opacity="1"><g transform="translate(122.947344, 48.590858)"><g><path d="M 13.390625 -4.890625 C 13.390625 -3.234375 12.863281 -1.96875 11.8125 -1.09375 C 10.769531 -0.21875 9.285156 0.21875 7.359375 0.21875 C 5.429688 0.21875 3.941406 -0.21875 2.890625 -1.09375 C 1.835938 -1.96875 1.3125 -3.234375 1.3125 -4.890625 L 1.3125 -12.140625 L 5.203125 -12.140625 L 5.203125 -4.9375 C 5.203125 -4.257812 5.382812 -3.71875 5.75 -3.3125 C 6.113281 -2.90625 6.644531 -2.703125 7.34375 -2.703125 C 8.03125 -2.703125 8.554688 -2.90625 8.921875 -3.3125 C 9.296875 -3.726562 9.484375 -4.269531 9.484375 -4.9375 L 9.484375 -12.140625 L 13.390625 -12.140625 Z M 13.390625 -4.890625 "/></g></g></g><g fill="#009688" fill-opacity="1"><g transform="translate(137.639931, 48.590858)"><g><path d="M 1.3125 -12.140625 L 5.203125 -12.140625 L 5.203125 -3.109375 L 11.4375 -3.109375 L 11.4375 0 L 1.3125 0 Z M 1.3125 -12.140625 "/></g></g></g><g fill="#009688" fill-opacity="1"><g transform="translate(149.404586, 48.590858)"><g><path d="M 13.390625 -4.890625 C 13.390625 -3.234375 12.863281 -1.96875 11.8125 -1.09375 C 10.769531 -0.21875 9.285156 0.21875 7.359375 0.21875 C 5.429688 0.21875 3.941406 -0.21875 2.890625 -1.09375 C 1.835938 -1.96875 1.3125 -3.234375 1.3125 -4.890625 L 1.3125 -12.140625 L 5.203125 -12.140625 L 5.203125 -4.9375 C 5.203125 -4.257812 5.382812 -3.71875 5.75 -3.3125 C 6.113281 -2.90625 6.644531 -2.703125 7.34375 -2.703125 C 8.03125 -2.703125 8.554688 -2.90625 8.921875 -3.3125 C 9.296875 -3.726562 9.484375 -4.269531 9.484375 -4.9375 L 9.484375 -12.140625 L 13.390625 -12.140625 Z M 13.390625 -4.890625 "/></g></g></g><g fill="#009688" fill-opacity="1"><g transform="translate(164.097173, 48.590858)"><g/></g></g><g fill="#009688" fill-opacity="1"><g transform="translate(169.970682, 48.590858)"><g><path d="M 9.984375 0 L 4.890625 -5.890625 L 4.890625 0 L 1.3125 0 L 1.3125 -12.140625 L 4.703125 -12.140625 L 9.8125 -6.15625 L 9.8125 -12.140625 L 13.390625 -12.140625 L 13.390625 0 Z M 9.984375 0 "/></g></g></g><g fill="#009688" fill-opacity="1"><g transform="translate(184.663269, 48.590858)"><g><path d="M 1.3125 -12.140625 L 11.796875 -12.140625 L 11.796875 -9.21875 L 5.203125 -9.21875 L 5.203125 -7.546875 L 10.84375 -7.546875 L 10.84375 -4.765625 L 5.203125 -4.765625 L 5.203125 -2.90625 L 11.921875 -2.90625 L 11.921875 0 L 1.3125 0 Z M 1.3125 -12.140625 "/></g></g></g><g fill="#009688" fill-opacity="1"><g transform="translate(197.398023, 48.590858)"><g><path d="M 7.40625 -12.34375 C 8.570312 -12.34375 9.617188 -12.164062 10.546875 -11.8125 C 11.472656 -11.46875 12.207031 -10.945312 12.75 -10.25 C 13.300781 -9.5625 13.578125 -8.726562 13.578125 -7.75 L 9.859375 -7.75 C 9.859375 -8.25 9.632812 -8.65625 9.1875 -8.96875 C 8.738281 -9.28125 8.195312 -9.4375 7.5625 -9.4375 C 6.644531 -9.4375 5.953125 -9.191406 5.484375 -8.703125 C 5.015625 -8.210938 4.78125 -7.523438 4.78125 -6.640625 L 4.78125 -5.5 C 4.78125 -4.601562 5.015625 -3.910156 5.484375 -3.421875 C 5.953125 -2.941406 6.644531 -2.703125 7.5625 -2.703125 C 8.195312 -2.703125 8.738281 -2.847656 9.1875 -3.140625 C 9.632812 -3.441406 9.859375 -3.828125 9.859375 -4.296875 L 7.109375 -4.296875 L 7.109375 -6.78125 L 13.578125 -6.78125 L 13.578125 0 L 11.578125 0 L 11.1875 -1.203125 C 10.082031 -0.253906 8.632812 0.21875 6.84375 0.21875 C 4.832031 0.21875 3.320312 -0.304688 2.3125 -1.359375 C 1.300781 -2.421875 0.796875 -3.988281 0.796875 -6.0625 C 0.796875 -8.125 1.367188 -9.6875 2.515625 -10.75 C 3.660156 -11.8125 5.289062 -12.34375 7.40625 -12.34375 Z M 7.40625 -12.34375 "/></g></g></g><g fill="#009688" fill-opacity="1"><g transform="translate(212.09061, 48.590858)"><g><path d="M 1.3125 -12.140625 L 11.796875 -12.140625 L 11.796875 -9.21875 L 5.203125 -9.21875 L 5.203125 -7.546875 L 10.84375 -7.546875 L 10.84375 -4.765625 L 5.203125 -4.765625 L 5.203125 -2.90625 L 11.921875 -2.90625 L 11.921875 0 L 1.3125 0 Z M 1.3125 -12.140625 "/></g></g></g><g fill="#009688" fill-opacity="1"><g transform="translate(224.825364, 48.590858)"><g><path d="M 12.828125 -8.421875 C 12.828125 -7.671875 12.625 -6.992188 12.21875 -6.390625 C 11.820312 -5.796875 11.242188 -5.359375 10.484375 -5.078125 L 13.171875 0 L 8.796875 0 L 6.65625 -4.421875 L 5.203125 -4.421875 L 5.203125 0 L 1.3125 0 L 1.3125 -12.140625 L 8.734375 -12.140625 C 9.597656 -12.140625 10.335938 -11.96875 10.953125 -11.625 C 11.578125 -11.289062 12.046875 -10.835938 12.359375 -10.265625 C 12.671875 -9.703125 12.828125 -9.085938 12.828125 -8.421875 Z M 8.859375 -8.25 C 8.859375 -8.570312 8.75 -8.835938 8.53125 -9.046875 C 8.320312 -9.253906 8.066406 -9.359375 7.765625 -9.359375 L 5.203125 -9.359375 L 5.203125 -7.125 L 7.765625 -7.125 C 8.066406 -7.125 8.320312 -7.234375 8.53125 -7.453125 C 8.75 -7.671875 8.859375 -7.9375 8.859375 -8.25 Z M 8.859375 -8.25 "/></g></g></g></svg>