<svg xmlns="http://www.w3.org/2000/svg" xmlns:xlink="http://www.w3.org/1999/xlink" width="100" zoomAndPan="magnify" viewBox="0 0 75 74.999997" height="100" preserveAspectRatio="xMidYMid meet" version="1.0"><defs><g/></defs><g fill="#ff1616" fill-opacity="1"><g transform="translate(-0.899998, 51.913354)"><g><path d="M 11.671875 0.375 C 8.753906 0.375 6.648438 -0.453125 5.359375 -2.109375 C 4.066406 -3.773438 3.421875 -6.164062 3.421875 -9.28125 L 3.421875 -27.15625 L 6.890625 -27.15625 L 6.890625 -9.46875 C 6.890625 -7.3125 7.253906 -5.632812 7.984375 -4.4375 C 8.722656 -3.25 9.953125 -2.65625 11.671875 -2.65625 C 13.578125 -2.65625 14.878906 -3.273438 15.578125 -4.515625 C 16.273438 -5.765625 16.625 -7.429688 16.625 -9.515625 L 16.625 -27.15625 L 20.078125 -27.15625 L 20.078125 -9.203125 C 20.078125 -6.316406 19.390625 -4 18.015625 -2.25 C 16.648438 -0.5 14.535156 0.375 11.671875 0.375 Z M 27 -9.546875 C 26.238281 -9.546875 25.550781 -9.828125 24.9375 -10.390625 C 24.332031 -10.960938 23.90625 -11.722656 23.65625 -12.671875 L 18.328125 -12.671875 L 18.328125 -15.4375 L 26.46875 -15.4375 L 27.765625 -9.546875 Z M 27 -9.546875 "/></g></g></g><g fill="#ff1616" fill-opacity="1"><g transform="translate(13.270561, 51.913354)"><g><path d="M 1.640625 0 C 1.960938 -3.625 2.367188 -6.6875 2.859375 -9.1875 C 3.359375 -11.6875 3.96875 -13.742188 4.6875 -15.359375 C 5.414062 -16.984375 6.3125 -18.257812 7.375 -19.1875 C 8.4375 -20.113281 9.71875 -20.804688 11.21875 -21.265625 L 9.390625 -27.15625 L 13.078125 -27.15625 L 21.484375 0 L 17.875 0 L 12.125 -18.484375 C 11.164062 -18.253906 10.304688 -17.800781 9.546875 -17.125 C 8.785156 -16.457031 8.113281 -15.4375 7.53125 -14.0625 C 6.945312 -12.695312 6.445312 -10.875 6.03125 -8.59375 C 5.613281 -6.3125 5.265625 -3.445312 4.984375 0 Z M 24.03125 -7.765625 C 23.269531 -7.765625 22.582031 -8.046875 21.96875 -8.609375 C 21.363281 -9.179688 20.9375 -9.941406 20.6875 -10.890625 L 15.359375 -10.890625 L 15.359375 -13.65625 L 23.5 -13.65625 L 24.796875 -7.765625 Z M 24.03125 -7.765625 "/></g></g></g><g fill="#ff1616" fill-opacity="1"><g transform="translate(40.256135, 51.256857)"><g><path d="M 3.828125 0 L 3.828125 -8.0625 C 2.890625 -8.195312 2.175781 -8.539062 1.6875 -9.09375 C 1.195312 -9.644531 0.953125 -10.441406 0.953125 -11.484375 L 0.953125 -13.578125 L 3.65625 -13.578125 L 3.65625 -12 C 3.65625 -11.25 3.816406 -10.734375 4.140625 -10.453125 C 4.460938 -10.179688 4.988281 -10.046875 5.71875 -10.046875 L 6.640625 -10.046875 L 6.640625 0 Z M 3.828125 0 "/></g></g></g><g fill="#ff1616" fill-opacity="1"><g transform="translate(50.215361, 51.256857)"><g><path d="M 7.328125 0 L 7.328125 -6.25 C 7.328125 -7.351562 7.242188 -8.253906 7.078125 -8.953125 C 6.921875 -9.660156 6.664062 -10.207031 6.3125 -10.59375 C 5.96875 -10.988281 5.507812 -11.257812 4.9375 -11.40625 C 4.375 -11.5625 3.679688 -11.640625 2.859375 -11.640625 L 2.65625 -11.640625 C 2.414062 -11.117188 2.140625 -10.753906 1.828125 -10.546875 C 1.523438 -10.347656 1.140625 -10.25 0.671875 -10.25 L 0.1875 -10.25 L 0.9375 -13.578125 L 3.15625 -13.578125 C 4.8125 -13.578125 6.15625 -13.347656 7.1875 -12.890625 C 8.21875 -12.429688 8.96875 -11.710938 9.4375 -10.734375 C 9.90625 -9.765625 10.140625 -8.5 10.140625 -6.9375 L 10.140625 0 Z M 7.328125 0 "/></g></g></g><g fill="#ff1616" fill-opacity="1"><g transform="translate(63.577746, 51.256857)"><g><path d="M 9.609375 1.28125 C 9.109375 1.28125 8.710938 1.148438 8.421875 0.890625 C 8.128906 0.640625 7.910156 0.34375 7.765625 0 L 6.234375 0 C 4.929688 0 3.898438 -0.148438 3.140625 -0.453125 C 2.378906 -0.753906 1.832031 -1.253906 1.5 -1.953125 C 1.175781 -2.648438 1.015625 -3.601562 1.015625 -4.8125 L 1.015625 -5.84375 C 1.015625 -7.320312 1.171875 -8.5625 1.484375 -9.5625 C 1.796875 -10.5625 2.238281 -11.351562 2.8125 -11.9375 C 3.382812 -12.519531 4.054688 -12.9375 4.828125 -13.1875 C 5.597656 -13.445312 6.441406 -13.578125 7.359375 -13.578125 L 9.578125 -13.578125 L 10.328125 -10.25 L 9.796875 -10.25 C 9.359375 -10.25 8.984375 -10.351562 8.671875 -10.5625 C 8.359375 -10.769531 8.085938 -11.128906 7.859375 -11.640625 L 7.375 -11.640625 C 6.5625 -11.640625 5.890625 -11.460938 5.359375 -11.109375 C 4.835938 -10.753906 4.453125 -10.164062 4.203125 -9.34375 C 3.953125 -8.53125 3.828125 -7.429688 3.828125 -6.046875 L 3.828125 -4.8125 C 3.828125 -4.0625 3.898438 -3.476562 4.046875 -3.0625 C 4.191406 -2.65625 4.441406 -2.363281 4.796875 -2.1875 C 5.148438 -2.019531 5.644531 -1.9375 6.28125 -1.9375 L 7.765625 -1.9375 C 7.890625 -2.257812 8.101562 -2.550781 8.40625 -2.8125 C 8.707031 -3.082031 9.109375 -3.21875 9.609375 -3.21875 L 10.234375 -3.21875 L 9.71875 -0.96875 L 10.234375 1.28125 Z M 9.609375 1.28125 "/></g></g></g><g fill="#ff1616" fill-opacity="1"><g transform="translate(30.473165, 35.265958)"><g><path d="M 2.507812 0 L 3.597656 0 C 3.425781 -0.113281 3.375 -0.222656 3.375 -0.527344 L 3.375 -1.753906 C 3.375 -2.609375 2.871094 -2.785156 2.519531 -2.785156 C 2.019531 -2.785156 1.570312 -2.472656 1.316406 -2.292969 L 1.316406 -4.226562 L 1.34375 -4.5 L -0.0585938 -3.847656 L -0.0585938 -3.8125 C 0.3125 -3.921875 0.480469 -3.949219 0.480469 -3.722656 L 0.480469 -0.351562 L 0.429688 0 L 1.640625 0 L 1.640625 -0.0234375 C 1.355469 -0.0859375 1.316406 -0.242188 1.316406 -0.550781 L 1.316406 -2.15625 C 1.515625 -2.304688 1.78125 -2.511719 2.117188 -2.511719 C 2.367188 -2.511719 2.542969 -2.371094 2.542969 -1.742188 L 2.542969 -0.390625 Z M 2.507812 0 "/></g></g></g><g fill="#ff1616" fill-opacity="1"><g transform="translate(34.240143, 35.265958)"><g><path d="M 3.285156 -0.179688 L 3.285156 -2.359375 L 3.320312 -2.75 L 2.144531 -2.75 L 2.144531 -2.738281 C 2.398438 -2.625 2.449219 -2.519531 2.449219 -2.210938 L 2.449219 -0.574219 C 2.253906 -0.410156 1.984375 -0.238281 1.640625 -0.238281 C 1.402344 -0.238281 1.226562 -0.375 1.226562 -1.003906 L 1.226562 -2.359375 L 1.257812 -2.75 L 0.0859375 -2.75 L 0.0859375 -2.738281 C 0.339844 -2.625 0.390625 -2.519531 0.390625 -2.210938 L 0.390625 -0.992188 C 0.390625 -0.136719 0.894531 0.0390625 1.238281 0.0390625 C 1.746094 0.0390625 2.191406 -0.234375 2.449219 -0.4375 L 2.449219 0.0273438 L 3.601562 -0.0585938 L 3.601562 -0.078125 C 3.511719 -0.0898438 3.363281 -0.128906 3.285156 -0.179688 Z M 3.285156 -0.179688 "/></g></g></g><g fill="#ff1616" fill-opacity="1"><g transform="translate(37.927689, 35.265958)"><g><path d="M 1.316406 -0.550781 L 1.316406 -4.226562 L 1.34375 -4.5 L -0.0585938 -3.847656 L -0.0585938 -3.8125 C 0.3125 -3.921875 0.480469 -3.949219 0.480469 -3.722656 L 0.480469 -0.351562 L 0.429688 0 L 1.640625 0 L 1.640625 -0.0234375 C 1.355469 -0.0859375 1.316406 -0.242188 1.316406 -0.550781 Z M 1.316406 -0.550781 "/></g></g></g><g fill="#ff1616" fill-opacity="1"><g transform="translate(39.652328, 35.265958)"><g><path d="M 3.285156 -0.179688 L 3.285156 -2.359375 L 3.320312 -2.75 L 2.144531 -2.75 L 2.144531 -2.738281 C 2.398438 -2.625 2.449219 -2.519531 2.449219 -2.210938 L 2.449219 -0.574219 C 2.253906 -0.410156 1.984375 -0.238281 1.640625 -0.238281 C 1.402344 -0.238281 1.226562 -0.375 1.226562 -1.003906 L 1.226562 -2.359375 L 1.257812 -2.75 L 0.0859375 -2.75 L 0.0859375 -2.738281 C 0.339844 -2.625 0.390625 -2.519531 0.390625 -2.210938 L 0.390625 -0.992188 C 0.390625 -0.136719 0.894531 0.0390625 1.238281 0.0390625 C 1.746094 0.0390625 2.191406 -0.234375 2.449219 -0.4375 L 2.449219 0.0273438 L 3.601562 -0.0585938 L 3.601562 -0.078125 C 3.511719 -0.0898438 3.363281 -0.128906 3.285156 -0.179688 Z M 3.285156 -0.179688 "/></g></g></g><g fill="#ff1616" fill-opacity="1"><g transform="translate(43.339874, 35.265958)"><g/></g></g><g fill="#ff1616" fill-opacity="1"><g transform="translate(44.474508, 35.265958)"><g><path d="M 2.429688 0 L 3.515625 0 C 3.347656 -0.113281 3.296875 -0.222656 3.296875 -0.527344 L 3.296875 -1.753906 C 3.296875 -2.609375 2.792969 -2.785156 2.4375 -2.785156 C 1.933594 -2.785156 1.488281 -2.46875 1.238281 -2.292969 L 1.238281 -2.359375 L 1.265625 -2.78125 L 0.0585938 -2.695312 L 0.0585938 -2.671875 C 0.175781 -2.660156 0.324219 -2.621094 0.402344 -2.570312 L 0.402344 -0.390625 L 0.367188 0 L 1.457031 0 C 1.289062 -0.113281 1.238281 -0.222656 1.238281 -0.527344 L 1.238281 -2.148438 C 1.429688 -2.296875 1.703125 -2.511719 2.035156 -2.511719 C 2.285156 -2.511719 2.460938 -2.371094 2.460938 -1.742188 L 2.460938 -0.390625 Z M 2.429688 0 "/></g></g></g><g fill="#ff1616" fill-opacity="1"><g transform="translate(48.162055, 35.265958)"><g><path d="M 3.019531 -0.550781 C 2.84375 -0.324219 2.492188 -0.253906 2.234375 -0.253906 C 1.558594 -0.253906 1.082031 -0.753906 1.070312 -1.578125 L 2.496094 -1.578125 C 3.234375 -1.578125 3.148438 -2.785156 1.894531 -2.785156 C 1.039062 -2.785156 0.226562 -2.257812 0.226562 -1.34375 C 0.226562 -0.5625 0.828125 0.0390625 1.804688 0.0390625 C 2.417969 0.0390625 2.875 -0.210938 3.046875 -0.527344 Z M 1.71875 -2.699219 C 2.332031 -2.699219 2.472656 -1.691406 2.066406 -1.683594 L 1.070312 -1.671875 C 1.089844 -2.308594 1.378906 -2.699219 1.71875 -2.699219 Z M 1.71875 -2.699219 "/></g></g></g><g fill="#ff1616" fill-opacity="1"><g transform="translate(51.304979, 35.265958)"><g><path d="M 2.019531 -2.785156 C 0.804688 -2.785156 0.226562 -2.082031 0.226562 -1.25 C 0.226562 -0.476562 0.742188 0.0390625 1.59375 0.0390625 C 1.933594 0.0390625 2.210938 -0.0507812 2.40625 -0.199219 L 2.40625 0.289062 C 2.40625 0.765625 2.15625 0.992188 1.894531 0.992188 C 1.683594 0.992188 1.40625 0.953125 1.175781 0.449219 L 0.429688 0.667969 C 0.648438 1.054688 1.039062 1.1875 1.367188 1.1875 C 2.046875 1.1875 3.238281 0.554688 3.238281 0.203125 L 3.238281 -2.574219 C 2.832031 -2.71875 2.382812 -2.785156 2.019531 -2.785156 Z M 1.96875 -0.140625 C 1.441406 -0.140625 1.042969 -0.761719 1.042969 -1.589844 C 1.042969 -2.242188 1.277344 -2.675781 1.78125 -2.675781 C 2.03125 -2.675781 2.230469 -2.570312 2.40625 -2.378906 L 2.40625 -0.328125 C 2.292969 -0.199219 2.140625 -0.140625 1.96875 -0.140625 Z M 1.96875 -0.140625 "/></g></g></g><g fill="#ff1616" fill-opacity="1"><g transform="translate(54.856373, 35.265958)"><g><path d="M 3.019531 -0.550781 C 2.84375 -0.324219 2.492188 -0.253906 2.234375 -0.253906 C 1.558594 -0.253906 1.082031 -0.753906 1.070312 -1.578125 L 2.496094 -1.578125 C 3.234375 -1.578125 3.148438 -2.785156 1.894531 -2.785156 C 1.039062 -2.785156 0.226562 -2.257812 0.226562 -1.34375 C 0.226562 -0.5625 0.828125 0.0390625 1.804688 0.0390625 C 2.417969 0.0390625 2.875 -0.210938 3.046875 -0.527344 Z M 1.71875 -2.699219 C 2.332031 -2.699219 2.472656 -1.691406 2.066406 -1.683594 L 1.070312 -1.671875 C 1.089844 -2.308594 1.378906 -2.699219 1.71875 -2.699219 Z M 1.71875 -2.699219 "/></g></g></g><g fill="#ff1616" fill-opacity="1"><g transform="translate(57.999297, 35.265958)"><g><path d="M 2.15625 -2.78125 C 1.742188 -2.78125 1.441406 -2.542969 1.308594 -2.179688 L 1.238281 -2.179688 L 1.238281 -2.359375 L 1.265625 -2.78125 L 0.0585938 -2.695312 L 0.0585938 -2.671875 C 0.175781 -2.660156 0.324219 -2.621094 0.402344 -2.570312 L 0.402344 -0.390625 L 0.375 0 L 1.457031 0 C 1.289062 -0.113281 1.238281 -0.222656 1.238281 -0.527344 L 1.238281 -1.621094 C 1.28125 -2.007812 1.402344 -2.335938 1.640625 -2.335938 C 1.867188 -2.335938 1.957031 -2.003906 1.839844 -1.683594 L 1.859375 -1.683594 L 2.472656 -2.710938 C 2.367188 -2.761719 2.273438 -2.78125 2.15625 -2.78125 Z M 2.15625 -2.78125 "/></g></g></g><g fill="#ff1616" fill-opacity="1"><g transform="translate(60.557887, 35.265958)"><g><path d="M 0.742188 0.0390625 C 0.96875 0.0390625 1.191406 -0.152344 1.191406 -0.417969 C 1.191406 -0.664062 0.96875 -0.839844 0.742188 -0.839844 C 0.503906 -0.839844 0.285156 -0.664062 0.285156 -0.417969 C 0.285156 -0.152344 0.503906 0.0390625 0.742188 0.0390625 Z M 0.742188 0.0390625 "/></g></g></g><g fill="#ff1616" fill-opacity="1"><g transform="translate(62.032909, 35.265958)"><g><path d="M 1.78125 0.0390625 C 2.382812 0.0390625 2.769531 -0.203125 2.9375 -0.511719 L 2.910156 -0.535156 C 2.734375 -0.316406 2.445312 -0.253906 2.234375 -0.253906 C 1.542969 -0.253906 1.070312 -0.890625 1.070312 -1.703125 C 1.070312 -2.40625 1.433594 -2.707031 1.777344 -2.707031 C 2.109375 -2.695312 2.609375 -2.378906 2.34375 -1.519531 L 2.355469 -1.519531 L 2.945312 -2.40625 C 2.769531 -2.605469 2.433594 -2.785156 1.910156 -2.785156 C 1.003906 -2.785156 0.226562 -2.257812 0.226562 -1.351562 C 0.226562 -0.5625 0.816406 0.0390625 1.78125 0.0390625 Z M 1.78125 0.0390625 "/></g></g></g><g fill="#ff1616" fill-opacity="1"><g transform="translate(65.175832, 35.265958)"><g><path d="M 1.757812 -2.785156 C 0.816406 -2.785156 0.226562 -2.207031 0.226562 -1.371094 C 0.226562 -0.515625 0.816406 0.0390625 1.757812 0.0390625 C 2.699219 0.0390625 3.289062 -0.539062 3.289062 -1.371094 C 3.289062 -2.230469 2.699219 -2.785156 1.757812 -2.785156 Z M 1.980469 -0.0585938 C 1.308594 -0.0585938 1.011719 -1.101562 1.011719 -1.839844 C 1.011719 -2.367188 1.152344 -2.6875 1.539062 -2.6875 C 2.210938 -2.6875 2.507812 -1.644531 2.507812 -0.894531 C 2.507812 -0.386719 2.367188 -0.0585938 1.980469 -0.0585938 Z M 1.980469 -0.0585938 "/></g></g></g><g fill="#ff1616" fill-opacity="1"><g transform="translate(68.693185, 35.265958)"><g><path d="M 4.148438 0 L 5.234375 0 C 5.066406 -0.113281 5.015625 -0.222656 5.015625 -0.527344 L 5.015625 -1.753906 C 5.015625 -2.609375 4.519531 -2.785156 4.179688 -2.785156 C 3.671875 -2.785156 3.246094 -2.398438 3.050781 -2.246094 C 2.90625 -2.683594 2.554688 -2.785156 2.292969 -2.785156 C 1.84375 -2.785156 1.464844 -2.492188 1.238281 -2.308594 L 1.238281 -2.359375 L 1.265625 -2.78125 L 0.0585938 -2.695312 L 0.0585938 -2.671875 C 0.175781 -2.660156 0.324219 -2.621094 0.402344 -2.570312 L 0.402344 -0.390625 L 0.367188 0 L 1.457031 0 C 1.289062 -0.113281 1.238281 -0.222656 1.238281 -0.527344 L 1.238281 -2.167969 C 1.417969 -2.316406 1.65625 -2.511719 1.917969 -2.511719 C 2.167969 -2.511719 2.292969 -2.359375 2.292969 -1.742188 L 2.292969 -0.390625 L 2.257812 0 L 3.347656 0 C 3.175781 -0.113281 3.125 -0.222656 3.125 -0.527344 L 3.125 -1.753906 C 3.125 -1.902344 3.109375 -2.023438 3.085938 -2.132812 C 3.257812 -2.273438 3.523438 -2.511719 3.808594 -2.511719 C 4.054688 -2.511719 4.179688 -2.359375 4.179688 -1.742188 L 4.179688 -0.390625 Z M 4.148438 0 "/></g></g></g></svg>